<svg width="1600" height="760" viewBox="0 0 1600 760" xmlns="http://www.w3.org/2000/svg" role="img" aria-labelledby="title desc">
  <title id="title">Elysian FitALL hero</title>
  <desc id="desc">Elysian FitALL adds a saved fitting for every single ship to all characters in EVE JS.</desc>
  <defs>
    <linearGradient id="bg" x1="0" y1="0" x2="1" y2="1">
      <stop offset="0" stop-color="#050c16"/>
      <stop offset="0.48" stop-color="#102337"/>
      <stop offset="1" stop-color="#1d0718"/>
    </linearGradient>
    <linearGradient id="stroke" x1="0" y1="0" x2="1" y2="0">
      <stop offset="0" stop-color="#2af6ff"/>
      <stop offset="0.55" stop-color="#ff7bb8"/>
      <stop offset="1" stop-color="#ffd372"/>
    </linearGradient>
    <linearGradient id="cardA" x1="0" y1="0" x2="1" y2="1">
      <stop offset="0" stop-color="#082d3b"/>
      <stop offset="1" stop-color="#09192b"/>
    </linearGradient>
    <linearGradient id="cardB" x1="0" y1="0" x2="1" y2="1">
      <stop offset="0" stop-color="#3b2510"/>
      <stop offset="1" stop-color="#171727"/>
    </linearGradient>
    <linearGradient id="cardC" x1="0" y1="0" x2="1" y2="1">
      <stop offset="0" stop-color="#43102a"/>
      <stop offset="1" stop-color="#121929"/>
    </linearGradient>
    <filter id="glow" x="-20%" y="-20%" width="140%" height="140%">
      <feGaussianBlur stdDeviation="14" result="blur"/>
      <feColorMatrix in="blur" type="matrix" values="0 0 0 0 0.16 0 0 0 0 0.96 0 0 0 0 1 0 0 0 .55 0"/>
      <feMerge>
        <feMergeNode/>
        <feMergeNode in="SourceGraphic"/>
      </feMerge>
    </filter>
    <style>
      text { font-family: Arial, Helvetica, sans-serif; letter-spacing: 0; }
      .kicker { fill: #2af6ff; font-size: 28px; font-weight: 900; }
      .title { fill: #eef6ff; font-size: 86px; font-weight: 900; }
      .subtitle { fill: #cbd8e8; font-size: 32px; font-weight: 600; }
      .value { font-size: 52px; font-weight: 900; }
      .label { fill: #eef6ff; font-size: 24px; font-weight: 900; }
      .small { fill: #cbd8e8; font-size: 21px; font-weight: 600; }
      .mono { font-family: Consolas, Menlo, monospace; font-size: 22px; font-weight: 900; }
    </style>
  </defs>
  <rect width="1600" height="760" rx="0" fill="url(#bg)"/>
  <circle cx="1260" cy="72" r="310" fill="#ffffff" opacity="0.07"/>
  <circle cx="1420" cy="688" r="360" fill="#ff7bb8" opacity="0.08"/>
  <path d="M-80 460 C260 350 420 520 760 386 C1050 270 1240 252 1680 214" fill="none" stroke="#2af6ff" stroke-width="3" opacity="0.42"/>
  <path d="M-120 620 C260 500 516 622 860 442 C1130 300 1330 322 1700 260" fill="none" stroke="#ff7bb8" stroke-width="3" opacity="0.38"/>
  <path d="M-100 352 C240 278 510 304 760 240 C1030 172 1240 116 1690 126" fill="none" stroke="#ffd372" stroke-width="3" opacity="0.35"/>
  <rect x="70" y="62" width="1460" height="636" rx="34" fill="#081522" opacity="0.86" stroke="#31517a" stroke-width="2"/>
  <rect x="92" y="84" width="1416" height="592" rx="28" fill="#0c1726" opacity="0.56"/>

  <g transform="translate(110 118)">
    <text class="kicker" x="0" y="0">JOHN ELYSIAN PRESENTS</text>
    <text class="title" x="0" y="92">Elysian FitALL</text>
    <text class="subtitle" x="0" y="144">Adds a saved fitting for every single ship to all characters.</text>
    <text class="small" x="0" y="188">EVE Online saved fittings for EVE JS - one local GUI, one click, every character fitted.</text>
  </g>

  <g filter="url(#glow)">
    <rect x="118" y="374" width="312" height="146" rx="24" fill="url(#cardA)" stroke="#2af6ff" stroke-width="2"/>
    <text class="value" x="146" y="441" fill="#2af6ff">415</text>
    <text class="label" x="146" y="476">ship fittings</text>
    <text class="small" x="146" y="506">full published hull set</text>

    <rect x="472" y="374" width="312" height="146" rx="24" fill="url(#cardB)" stroke="#ffd372" stroke-width="2"/>
    <text class="value" x="500" y="441" fill="#ffd372">100%</text>
    <text class="label" x="500" y="476">hull coverage</text>
    <text class="small" x="500" y="506">403 public + 12 donor fits</text>

    <rect x="826" y="374" width="312" height="146" rx="24" fill="url(#cardC)" stroke="#ff7bb8" stroke-width="2"/>
    <text class="value" x="854" y="441" fill="#ff7bb8">0.402s</text>
    <text class="label" x="854" y="476">real local write</text>
    <text class="small" x="854" y="506">startup + JSON write</text>

    <rect x="1180" y="374" width="300" height="146" rx="24" fill="#0b2238" stroke="#78dcff" stroke-width="2"/>
    <text class="value" x="1208" y="441" fill="#78dcff">4.74ms</text>
    <text class="label" x="1208" y="476">seed engine</text>
    <text class="small" x="1208" y="506">best offline dry-run</text>
  </g>

  <g>
    <line x1="118" y1="592" x2="430" y2="592" stroke="#2af6ff" stroke-width="2" opacity="0.55"/>
    <line x1="472" y1="592" x2="784" y2="592" stroke="#ffd372" stroke-width="2" opacity="0.55"/>
    <line x1="826" y1="592" x2="1138" y2="592" stroke="#ff7bb8" stroke-width="2" opacity="0.55"/>
    <line x1="1180" y1="592" x2="1480" y2="592" stroke="#78dcff" stroke-width="2" opacity="0.55"/>
    <text class="mono" x="118" y="634" fill="#2af6ff">5,395 rows written</text>
    <text class="mono" x="472" y="634" fill="#ffd372">13 public characters</text>
    <text class="mono" x="826" y="634" fill="#ff7bb8">Windows / Linux / macOS</text>
    <text class="mono" x="1180" y="634" fill="#78dcff">one-click installer</text>
  </g>
</svg>
