<svg width="1600" height="520" viewBox="0 0 1600 520" xmlns="http://www.w3.org/2000/svg" role="img" aria-labelledby="title desc">
  <title id="title">FitALL install flow</title>
  <desc id="desc">Download, install, choose EVE JS, and fit every character.</desc>
  <defs>
    <linearGradient id="bg" x1="0" y1="0" x2="1" y2="1">
      <stop offset="0" stop-color="#06101c"/>
      <stop offset="1" stop-color="#191023"/>
    </linearGradient>
    <linearGradient id="grad" x1="0" y1="0" x2="1" y2="0">
      <stop offset="0" stop-color="#2af6ff"/>
      <stop offset="0.52" stop-color="#ff7bb8"/>
      <stop offset="1" stop-color="#ffd372"/>
    </linearGradient>
    <style>
      text { font-family: Arial, Helvetica, sans-serif; letter-spacing: 0; }
      .title { fill: #eef6ff; font-size: 48px; font-weight: 900; }
      .step { fill: #eef6ff; font-size: 30px; font-weight: 900; }
      .body { fill: #cbd8e8; font-size: 22px; font-weight: 600; }
      .code { font-family: Consolas, Menlo, monospace; fill: #2af6ff; font-size: 22px; font-weight: 900; }
      .num { fill: #07111d; font-size: 30px; font-weight: 900; }
    </style>
  </defs>
  <rect width="1600" height="520" rx="0" fill="url(#bg)"/>
  <rect x="70" y="62" width="1460" height="396" rx="32" fill="#081522" opacity="0.9" stroke="#31517a" stroke-width="2"/>
  <text class="title" x="118" y="132">World's easiest FitALL install</text>
  <text class="body" x="118" y="172">The installer checks disk space, Python, the local virtual environment, PySide6, and your EVE JS database paths.</text>

  <g>
    <rect x="118" y="230" width="300" height="150" rx="24" fill="#0b2238" stroke="#2af6ff" stroke-width="2"/>
    <circle cx="160" cy="274" r="24" fill="url(#grad)"/>
    <text class="num" x="151" y="285">1</text>
    <text class="step" x="198" y="270">Download</text>
    <text class="body" x="146" y="312">Get latest</text>
    <text class="body" x="146" y="338">release ZIP.</text>
    <text class="code" x="146" y="366">Elysian-FitALL.zip</text>

    <rect x="472" y="230" width="300" height="150" rx="24" fill="#0b2238" stroke="#ffd372" stroke-width="2"/>
    <circle cx="514" cy="274" r="24" fill="url(#grad)"/>
    <text class="num" x="505" y="285">2</text>
    <text class="step" x="552" y="270">Install</text>
    <text class="body" x="500" y="312">Double-click</text>
    <text class="body" x="500" y="338">on Windows.</text>
    <text class="code" x="500" y="366">Install.bat</text>

    <rect x="826" y="230" width="300" height="150" rx="24" fill="#0b2238" stroke="#ff7bb8" stroke-width="2"/>
    <circle cx="868" cy="274" r="24" fill="url(#grad)"/>
    <text class="num" x="859" y="285">3</text>
    <text class="step" x="906" y="270">Choose</text>
    <text class="body" x="854" y="312">Point it at your</text>
    <text class="body" x="854" y="338">EVE JS folder.</text>
    <text class="code" x="854" y="366">remembered forever</text>

    <rect x="1180" y="230" width="300" height="150" rx="24" fill="#0b2238" stroke="#78dcff" stroke-width="2"/>
    <circle cx="1222" cy="274" r="24" fill="url(#grad)"/>
    <text class="num" x="1213" y="285">4</text>
    <text class="step" x="1260" y="270">Fit</text>
    <text class="body" x="1208" y="312">One click seeds</text>
    <text class="body" x="1208" y="338">every character.</text>
    <text class="code" x="1208" y="366">Fit Every Character</text>
  </g>
</svg>
